<svg class="typst-doc" viewBox="0 0 264.00899999999996 365.714" width="264.00899999999996pt" height="365.714pt" xmlns="http://www.w3.org/2000/svg" xmlns:xlink="http://www.w3.org/1999/xlink" xmlns:h5="http://www.w3.org/1999/xhtml">
    <path class="typst-shape" fill="#ffffff" fill-rule="nonzero" d="M 0 0v 365.714 h 264.009 v -365.714 Z "/>
    <g>
        <g class="typst-group">
            <g>
                <g class="typst-group" transform="matrix(2 0 0 2 67.9955 17.143)">
                    <g>
                        <g class="typst-group">
                            <g>
                                <path class="typst-shape" fill="none" stroke="#000000" stroke-width="0.528" stroke-linecap="round" stroke-linejoin="miter" stroke-miterlimit="4" transform="matrix(1 0 0 1 32.004499968503936 14.237999874015753)" d="M 0 0m 0.0000000000000062941777 0 l -0.0000000000000062941777 37.228115 "/>
                                <path class="typst-shape" fill="#000000" fill-rule="nonzero" transform="matrix(1 0 0 1 30.198633320071824 47.276422011359756)" d="M 0 0l 1.8058667 4.961578 l 1.8058667 -4.961578 "/>
                                <path class="typst-shape" fill="none" transform="matrix(1 0 0 1 23.20449996850393 31.03799993700787)" d="M 0 0h 4.4 v 4.4 h -4.4 v -4.4 Z "/>
                                <g class="typst-group">
                                    <g>
                                        <g class="typst-group" transform="matrix(1 0 0 1 23.20449985826771 31.037999826771667)">
                                            <g>
                                                <g class="typst-group">
                                                    <g>
                                                        <g class="typst-group">
                                                            <g/>
                                                        </g>
                                                    </g>
                                                </g>
                                            </g>
                                        </g>
                                    </g>
                                </g>
                                <path class="typst-shape" fill="none" stroke="#000000" stroke-width="0.528" stroke-linecap="round" stroke-linejoin="miter" stroke-miterlimit="4" transform="matrix(1 0 0 1 32.004499968503936 113.47600000000003)" d="M 0 0v 37.228115 "/>
                                <path class="typst-shape" fill="#000000" fill-rule="nonzero" transform="matrix(1 0 0 1 30.198633320071824 146.51442226332827)" d="M 0 0l 1.8058667 4.961578 l 1.8058667 -4.961578 "/>
                                <path class="typst-shape" fill="none" transform="matrix(1 0 0 1 23.20449996850393 130.27600006299215)" d="M 0 0h 4.4 v 4.4 h -4.4 v -4.4 Z "/>
                                <g class="typst-group">
                                    <g>
                                        <g class="typst-group" transform="matrix(1 0 0 1 23.20449985826771 130.27599995275594)">
                                            <g>
                                                <g class="typst-group">
                                                    <g>
                                                        <g class="typst-group">
                                                            <g/>
                                                        </g>
                                                    </g>
                                                </g>
                                            </g>
                                        </g>
                                    </g>
                                </g>
                                <path class="typst-shape" fill="none" transform="matrix(1 0 0 1 20.019999968453927 0)" d="M 0 0h 23.969 v 7.238 h -23.969 v -7.238 Z "/>
                                <g class="typst-group">
                                    <g>
                                        <g class="typst-group" transform="matrix(1 0 0 1 20.019999905511806 -0.00000006299212403486824)">
                                            <g>
                                                <g class="typst-group">
                                                    <g>
                                                        <g class="typst-text" transform="matrix(1 0 0 -1 0.00000000005000072447069752 7.238000000000001)">
                                                            <use xlink:href="#g77F61875CF3336CE5B16D14625B1BCDE" x="0" y="0" fill="#000000" fill-rule="nonzero"/>
                                                            <use xlink:href="#gDD279341F751D21F331422761B8607ED" x="2.9810000000000003" y="0" fill="#000000" fill-rule="nonzero"/>
                                                            <use xlink:href="#gDF8C97957E373D1B2CF13530AF235847" x="8.943000000000001" y="0" fill="#000000" fill-rule="nonzero"/>
                                                            <use xlink:href="#gDD863F7B5064051AA9D63FE46DD92616" x="14.652000000000001" y="0" fill="#000000" fill-rule="nonzero"/>
                                                            <use xlink:href="#g9C9B6AA18E2E17EA5FBAD531DB68A734" x="20.493000000000002" y="0" fill="#000000" fill-rule="nonzero"/>
                                                        </g>
                                                    </g>
                                                </g>
                                            </g>
                                        </g>
                                    </g>
                                </g>
                                <path class="typst-shape" fill="none" stroke="#000000" stroke-width="1" stroke-linecap="butt" stroke-linejoin="miter" stroke-miterlimit="4" transform="matrix(1 0 0 1 0 57.238000000000014)" d="M 0 0m 1 0 c -0.55178404 0 -1 0.448216 -1 1 v 49.238 c 0 0.5517845 0.448216 1 1 1 h 62.009 c 0.5517845 0 1.0000038 -0.44821548 1.0000038 -1 v -49.238 c 0 -0.55178404 -0.4482193 -1 -1.0000038 -1 h -62.009 Z "/>
                                <path class="typst-shape" fill="none" transform="matrix(1 0 0 1 21.999999968453928 79.23800000000001)" d="M 0 0h 20.009 v 7.238 h -20.009 v -7.238 Z "/>
                                <g class="typst-group">
                                    <g>
                                        <g class="typst-group" transform="matrix(1 0 0 1 21.999999905511807 79.23799993700788)">
                                            <g>
                                                <g class="typst-group">
                                                    <g>
                                                        <g class="typst-text" transform="matrix(1 0 0 -1 0.00000000005000072447069752 7.237999999999999)">
                                                            <use xlink:href="#g9858E93811120842BA38E0A8046309B4" x="0" y="0" fill="#000000" fill-rule="nonzero"/>
                                                            <use xlink:href="#g9C9B6AA18E2E17EA5FBAD531DB68A734" x="4.29" y="0" fill="#000000" fill-rule="nonzero"/>
                                                            <use xlink:href="#gDD863F7B5064051AA9D63FE46DD92616" x="7.766" y="0" fill="#000000" fill-rule="nonzero"/>
                                                            <use xlink:href="#g5A8819DE2B6726C026F3D528754DD4EB" x="13.607" y="0" fill="#000000" fill-rule="nonzero"/>
                                                        </g>
                                                    </g>
                                                </g>
                                            </g>
                                        </g>
                                    </g>
                                </g>
                                <path class="typst-shape" fill="none" transform="matrix(1 0 0 1 11.670999968453932 158.476)" d="M 0 0h 40.667 v 7.238 h -40.667 v -7.238 Z "/>
                                <g class="typst-group">
                                    <g>
                                        <g class="typst-group" transform="matrix(1 0 0 1 11.670999952755905 158.47599993700788)">
                                            <g>
                                                <g class="typst-group">
                                                    <g>
                                                        <g class="typst-text" transform="matrix(1 0 0 -1 0.00000000005000072447069752 7.238000000000001)">
                                                            <use xlink:href="#g8C0262E4302E0638B1943179196BED2D" x="0" y="0" fill="#000000" fill-rule="nonzero"/>
                                                            <use xlink:href="#gBAD35F08C7E779E3C507C8AE0C280995" x="5.918" y="0" fill="#000000" fill-rule="nonzero"/>
                                                            <use xlink:href="#g4C5202E6A6301AA1444482543B889DED" x="11.462" y="0" fill="#000000" fill-rule="nonzero"/>
                                                            <use xlink:href="#g55B943B54A7CA0091797820502823289" x="15.553999999999998" y="0" fill="#000000" fill-rule="nonzero"/>
                                                            <use xlink:href="#gBAD35F08C7E779E3C507C8AE0C280995" x="24.244" y="0" fill="#000000" fill-rule="nonzero"/>
                                                            <use xlink:href="#gDD279341F751D21F331422761B8607ED" x="29.788" y="0" fill="#000000" fill-rule="nonzero"/>
                                                            <use xlink:href="#g99A255A263467FD58D3ACC5CB3315FBE" x="35.75" y="0" fill="#000000" fill-rule="nonzero"/>
                                                        </g>
                                                    </g>
                                                </g>
                                            </g>
                                        </g>
                                    </g>
                                </g>
                            </g>
                        </g>
                    </g>
                </g>
            </g>
        </g>
    </g>
    <defs id="glyph">
        <symbol id="g77F61875CF3336CE5B16D14625B1BCDE" overflow="visible">
            <path d="M 0 0m 1.9909999 1.342 v 2.189 c 0 0.54999995 0.04400015 1.254 0.04400015 1.254 c 0 0.04400015 -0.055000067 0.07700014 -0.14300013 0.07700014 c -0.30799997 -0.12099981 -0.7479999 -0.21999979 -1.507 -0.31900024 c -0.021999985 -0.065999985 0 -0.24199963 0.022000015 -0.3079996 c 0.60499996 -0.055000305 0.715 -0.12100029 0.715 -0.74800014 v -2.145 c 0 -0.913 -0.12099993 -0.946 -0.792 -1.001 c -0.065999985 -0.065999985 -0.065999985 -0.297 0 -0.36299998 c 0.36300004 0.011 0.792 0.022 1.2320001 0.022 c 0.44000006 0 0.85800004 -0.011 1.221 -0.022 c 0.065999985 0.066 0.065999985 0.297 0 0.36299998 c -0.671 0.044 -0.79200006 0.088 -0.79200006 1.001 Z m -1.0009999 5.2469997 c 0 -0.28599977 0.26399994 -0.57199955 0.528 -0.57199955 c 0.30799997 0 0.5719999 0.29699993 0.5719999 0.5279999 c 0 0.26399994 -0.23099995 0.572 -0.5279999 0.572 c -0.26400006 0 -0.572 -0.26399994 -0.572 -0.52800035 Z "/>
        </symbol>
        <symbol id="gDD279341F751D21F331422761B8607ED" overflow="visible">
            <path d="M 0 0m 2.024 3.938 c -0.065999985 -0.0769999 -0.13199997 -0.09899998 -0.13199997 0 c -0.010999918 0.29700017 -0.032999992 0.7260001 -0.08799994 0.8360002 c -0.022000074 0.05499983 -0.04400003 0.08799982 -0.13200009 0.08799982 c -0.30799997 -0.12099981 -0.594 -0.21999979 -1.3529999 -0.31900024 c -0.022000015 -0.065999985 0 -0.24199963 0.021999985 -0.3079996 c 0.594 -0.055000305 0.71500003 -0.11000013 0.71500003 -0.74800014 v -2.145 c 0 -0.902 -0.110000014 -0.946 -0.77 -1.001 c -0.066000015 -0.065999985 -0.066000015 -0.297 0 -0.36299998 c 0.32999998 0.011 0.77 0.022 1.21 0.022 c 0.43999994 0 0.77 -0.011 1.0999999 -0.022 c 0.065999985 0.066 0.065999985 0.297 0 0.36299998 c -0.5609999 0.055000007 -0.671 0.09900001 -0.671 1.001 v 1.8039999 c 0 0.23100019 0.09899998 0.36300015 0.18700004 0.46200013 c 0.41799998 0.40699983 0.9130001 0.6489999 1.342 0.6489999 c 0.22000003 0 0.45099998 -0.14300013 0.5830002 -0.3959999 c 0.10999966 -0.22000003 0.13199997 -0.5170002 0.13199997 -0.8470001 v -1.6719999 c 0 -0.902 -0.11000013 -0.946 -0.68200016 -1.001 c -0.055000067 -0.065999985 -0.055000067 -0.297 0 -0.36299998 c 0.32999992 0.011 0.68200016 0.022 1.1220002 0.022 c 0.43999958 0 0.83599997 -0.011 1.1659999 -0.022 c 0.05499983 0.066 0.05499983 0.297 0 0.36299998 c -0.6160002 0.055000007 -0.737 0.09900001 -0.737 1.001 v 1.6389999 c 0 0.605 -0.04400015 1.1329999 -0.29699993 1.474 c -0.18700027 0.2420001 -0.52800035 0.37400007 -0.9130001 0.37400007 c -0.53900003 0 -1.155 -0.14300013 -1.8040001 -0.89100003 Z "/>
        </symbol>
        <symbol id="gDF8C97957E373D1B2CF13530AF235847" overflow="visible">
            <path d="M 0 0m 1.716 4.048 c -0.010999918 0.32999992 -0.032999992 0.6160002 -0.08799994 0.7260003 c -0.022000074 0.05499983 -0.04400003 0.08799982 -0.13199997 0.08799982 c -0.3080001 -0.12099981 -0.59400004 -0.21999979 -1.353 -0.31900024 c -0.022000007 -0.065999985 0 -0.24199963 0.021999985 -0.3079996 c 0.594 -0.055000305 0.71500003 -0.11000013 0.71500003 -0.74800014 v -4.697 c 0 -0.91299987 -0.12099999 -0.96799994 -0.792 -1.0009999 c -0.066 -0.065999985 -0.066 -0.29699993 0 -0.36299992 c 0.385 0.010999918 0.792 0.021999836 1.2319999 0.021999836 c 0.44000006 0 0.9680002 -0.010999918 1.3310001 -0.021999836 c 0.065999985 0.065999985 0.065999985 0.29699993 0 0.36299992 c -0.781 0.04399991 -0.90200007 0.08800006 -0.90200007 1.0009999 v 1.1880001 c 0 0.143 0.04400003 0.132 0.15400004 0.088 c 0.27499998 -0.11 0.6049999 -0.176 0.9569999 -0.176 c 0.6160002 0 1.1660001 0.187 1.6169999 0.616 c 0.5170002 0.506 0.8140001 1.188 0.8140001 2.079 c 0 1.1659999 -0.8249998 2.244 -1.947 2.244 c -0.5059998 0 -1.0669999 -0.32999992 -1.5069999 -0.8249998 c -0.065999985 -0.06600022 -0.110000014 -0.06600022 -0.12100005 0.043999672 Z m 0.20899999 -0.40699983 c 0.286 0.352 0.79200006 0.6819999 1.1110001 0.6819999 c 0.704 0 1.3089998 -0.79200006 1.3089998 -2.0349998 c 0 -0.90200007 -0.31899977 -2.0240002 -1.5509999 -2.0240002 c -0.19799995 0 -0.58299994 0.055000007 -0.7809999 0.231 c -0.22000003 0.19800001 -0.26400006 0.264 -0.26400006 0.65999997 v 2.002 c 0 0.23099995 0.04400003 0.32999992 0.176 0.48399997 Z "/>
        </symbol>
        <symbol id="gDD863F7B5064051AA9D63FE46DD92616" overflow="visible">
            <path d="M 0 0m 2.387 -0.11 c 0.4289999 0 0.94599986 0.22 1.4849999 0.66 c 0.055000067 0.04399997 0.15400004 0.065999985 0.1650002 -0.011000037 c 0.032999992 -0.27499998 0.12099981 -0.649 0.12099981 -0.649 c 0.08799982 -0.033000007 0.14300013 -0.022 0.20900011 0 c 0.2420001 0.198 0.62699986 0.36299998 1.2979999 0.44 c 0.065999985 0.066000015 0.065999985 0.231 0 0.297 c -0.704 0.055000007 -0.803 0.264 -0.803 0.803 v 2.112 c 0 0.32999992 0.04400015 1.1330001 0.04400015 1.1330001 c 0 0.032999992 -0.032999992 0.065999985 -0.0880003 0.065999985 c -0.05499983 -0.011000156 -0.21999979 -0.022000313 -0.38499975 -0.022000313 c -0.35200024 0 -0.74800014 0.011000156 -1.1220002 0.022000313 c -0.065999985 -0.065999985 -0.065999985 -0.2970004 0 -0.3630004 c 0.53900003 -0.032999992 0.68200016 -0.16499996 0.68200016 -0.8909998 v -2.1230001 c 0 -0.20899999 -0.022000074 -0.29699993 -0.17600012 -0.42899996 c -0.40699983 -0.352 -0.8249998 -0.528 -1.0999999 -0.528 c -0.32999992 0 -0.88 0.15399998 -0.88 1.1329999 v 2.002 c 0 0.32999992 0.04400003 1.1330001 0.04400003 1.1330001 c 0 0.032999992 -0.032999992 0.065999985 -0.08800006 0.065999985 c -0.054999948 -0.011000156 -0.22000003 -0.022000313 -0.385 -0.022000313 c -0.352 0 -0.748 0.011000156 -1.122 0.022000313 c -0.066000015 -0.065999985 -0.066000015 -0.2970004 0 -0.3630004 c 0.528 -0.043999672 0.682 -0.16499996 0.682 -0.8799999 v -2.112 c 0 -0.75900006 0.32999998 -1.496 1.4190001 -1.496 Z "/>
        </symbol>
        <symbol id="g9C9B6AA18E2E17EA5FBAD531DB68A734" overflow="visible">
            <path d="M 0 0m 0.473 4.719 c -0.15399998 0 -0.19799998 -0.13199997 -0.19799998 -0.21999979 v -0.14300013 c 0 -0.05499983 0.011000007 -0.065999985 0.054999977 -0.065999985 h 0.649 v -3.3109999 c 0 -0.78099996 0.34099996 -1.089 0.847 -1.089 c 0.50600004 0 1.056 0.242 1.4849999 0.726 c -0.021999836 0.110000014 -0.08799982 0.176 -0.19799995 0.18699998 c -0.286 -0.21999997 -0.61599994 -0.30799997 -0.90199995 -0.30799997 c -0.29699993 0 -0.36299992 0.32999998 -0.36299992 1.012 v 2.783 h 1.144 c 0.109999895 0 0.26399994 0.04400015 0.26399994 0.14300013 v 0.21999979 c 0 0.04400015 -0.032999992 0.065999985 -0.08800006 0.065999985 h -1.3199999 v 0.4289999 c 0 0.71500015 0.04399991 1.1550002 0.04399991 1.1550002 c 0 0.065999985 -0.032999992 0.09899998 -0.08799994 0.09899998 c -0.04400003 0 -0.143 -0.04400015 -0.24199998 -0.09899998 c -0.12100005 -0.065999985 -0.23100007 -0.12099981 -0.37400007 -0.1539998 c -0.13199997 -0.04400015 -0.24199998 -0.07700014 -0.24199998 -0.15400028 c 0 -0.13199997 0.032999992 -0.05499983 0.032999992 -1.276 Z "/>
        </symbol>
        <symbol id="g9858E93811120842BA38E0A8046309B4" overflow="visible">
            <path d="M 0 0m 0.528 1.518 c 0.04400003 -0.53900003 0.07700002 -1.056 0.07700002 -1.518 c 0.109999955 0.022 0.21999997 0.033 0.27499998 0.033 c 0.07700002 0 0.143 0 0.22000003 -0.022 c 0.29699993 -0.077 0.594 -0.121 1.001 -0.121 c 0.61599994 0 1.7489998 0.297 1.7489998 1.386 c 0 0.7479999 -0.53900003 1.188 -1.287 1.463 c -0.65999997 0.25300002 -1.1 0.41799998 -1.1 1.023 c 0 0.45099974 0.39600003 0.704 0.7700001 0.704 c 0.24199986 0 0.8799999 -0.0880003 1.023 -1.023 c 0.065999985 -0.065999985 0.286 -0.055000067 0.352 0.010999918 c 0.032999992 0.3959999 0.05499983 0.803 0.065999985 1.1659999 c -0.34100008 0.055000305 -0.86899996 0.20900011 -1.441 0.20900011 c -0.814 0 -1.5510001 -0.5279999 -1.5510001 -1.2320001 c 0 -0.803 0.36299998 -1.1439998 1.21 -1.4959998 c 0.9130001 -0.37400007 1.122 -0.605 1.122 -1.0780001 c 0 -0.53900003 -0.5279999 -0.77 -0.93499994 -0.77 c -0.42900002 0 -0.671 0.143 -0.781 0.26400003 c -0.24199998 0.25299996 -0.36299998 0.7369999 -0.42899996 1.0120001 c -0.066000044 0.065999985 -0.27500004 0.054999948 -0.34100002 -0.011000037 Z "/>
        </symbol>
        <symbol id="g5A8819DE2B6726C026F3D528754DD4EB" overflow="visible">
            <path d="M 0 0m 4.917 1.342 v 2.948 h 1.0120001 c 0.11000013 0 0.26399994 0.04400015 0.26399994 0.14300013 v 0.21999979 c 0 0.04400015 -0.032999992 0.065999985 -0.08799982 0.065999985 h -1.1880002 v 0.5830002 c 0 0.21999979 0.011000156 0.71500015 0.07700014 1.0889997 c 0.1539998 0.803 0.44000006 0.90199995 0.68200016 0.90199995 c 0.26399994 0 0.4949999 -0.1539998 0.59399986 -0.3739996 c 0.11000013 -0.23100042 0.21999979 -0.44000006 0.5170002 -0.44000006 c 0.21999979 0 0.38499975 0.16499996 0.38499975 0.38499975 c 0 0.4510002 -0.50600004 0.8140001 -1.3200002 0.8140001 c -0.4069996 0 -1.0339999 -0.2420001 -1.408 -0.8249998 c -0.14299965 0.26399994 -0.6379998 0.638 -1.5179999 0.638 c -0.29699993 0 -0.58299994 -0.07700014 -0.8139999 -0.20900011 c -0.75899994 -0.44000006 -1.122 -1.2210002 -1.122 -2.5630002 h -0.53900003 c -0.19800001 0 -0.25300002 -0.13199997 -0.25300002 -0.21999979 v -0.14300013 c 0 -0.05499983 0.0109999925 -0.065999985 0.054999992 -0.065999985 h 0.737 v -2.948 c 0 -0.913 -0.12099999 -0.957 -0.71500003 -1.001 c -0.066000015 -0.065999985 -0.066000015 -0.297 0 -0.36299998 c 0.363 0.011 0.75900006 0.022 1.155 0.022 c 0.352 0 0.72599995 -0.011 1.078 -0.022 c 0.065999985 0.066 0.065999985 0.297 0 0.36299998 c -0.5059998 0.044 -0.6489999 0.088 -0.6489999 1.001 v 2.948 h 2.189 v -2.948 c 0 -0.913 -0.12099981 -0.957 -0.6049998 -1.001 c -0.065999985 -0.065999985 -0.065999985 -0.297 0 -0.36299998 c 0.319 0.011 0.67099977 0.022 1.0449998 0.022 c 0.35200024 0 0.8250003 -0.011 1.2979999 -0.022 c 0.065999985 0.066 0.065999985 0.297 0 0.36299998 c -0.74799967 0.044 -0.86899996 0.088 -0.86899996 1.001 Z m -0.7589998 4.862 c -0.09899998 -0.3959999 -0.11000013 -0.8249998 -0.11000013 -1.0450001 v -0.44000006 h -2.189 v 0.09899998 c 0 0.74800014 0.08800006 1.1329999 0.15400004 1.342 c 0.23099995 0.8800001 0.7260001 1.0009999 0.89100003 1.0009999 c 0.385 0 0.58299994 -0.26399994 0.704 -0.53900003 c 0.09899998 -0.21999979 0.19799995 -0.43999958 0.48399997 -0.43999958 c 0.021999836 0 0.05499983 0.01099968 0.065999985 0.021999836 Z "/>
        </symbol>
        <symbol id="g8C0262E4302E0638B1943179196BED2D" overflow="visible">
            <path d="M 0 0m 1.837 3.146 c 0 0.23100019 0.09899998 0.36300015 0.18699992 0.46200013 c 0.41799998 0.40699983 0.9790001 0.6489999 1.408 0.6489999 c 0.22000003 0 0.45099998 -0.14300013 0.58299994 -0.3959999 c 0.11000013 -0.22000003 0.13199997 -0.5170002 0.13199997 -0.8470001 v -1.6719999 c 0 -0.902 -0.10999966 -0.946 -0.6819999 -1.001 c -0.05499983 -0.065999985 -0.05499983 -0.297 0 -0.36299998 c 0.3080001 0.011 0.6819999 0.022 1.122 0.022 c 0.44000006 0 0.803 -0.011 1.1659999 -0.022 c 0.055000305 0.066 0.055000305 0.297 0 0.36299998 c -0.6159997 0.055000007 -0.737 0.09900001 -0.737 1.001 v 1.6389999 c 0 0.605 -0.043999672 1.144 -0.29699993 1.474 c -0.1869998 0.2420001 -0.5279999 0.37400007 -0.91299987 0.37400007 c -0.53900003 0 -1.1990001 -0.14300013 -1.87 -0.89100003 c 0 -0.010999918 -0.011000037 -0.010999918 -0.021999955 -0.022000074 c -0.032999992 -0.04399991 -0.08800006 -0.109999895 -0.08800006 0.022000074 l 0.011000037 2.4750001 c 0 0.7149997 0.04400003 1.1549997 0.04400003 1.1549997 c 0 0.07700014 -0.04400003 0.11000013 -0.143 0.11000013 c -0.2750001 -0.11000013 -1.1 -0.26399994 -1.5400001 -0.29699993 c -0.022 -0.0880003 0 -0.26399994 0.066 -0.32999992 c 0.032999992 0 0.065999985 0 0.09900001 0 c 0.484 -0.032999992 0.605 -0.032999992 0.605 -0.90199995 v -4.807 c 0 -0.913 -0.13200003 -0.957 -0.77 -1.001 c -0.066 -0.065999985 -0.066 -0.297 0 -0.36299998 c 0.36299998 0.011 0.77 0.022 1.21 0.022 c 0.41799998 0 0.7809999 -0.011 1.089 -0.022 c 0.065999985 0.066 0.065999985 0.297 0 0.36299998 c -0.561 0.044 -0.65999997 0.088 -0.65999997 1.001 Z "/>
        </symbol>
        <symbol id="gBAD35F08C7E779E3C507C8AE0C280995" overflow="visible">
            <path d="M 0 0m 0.451 2.2549999 c 0 -1.1219999 0.748 -2.3649998 2.31 -2.3649998 c 0.704 0 1.2430003 0.25300002 1.6169999 0.616 c 0.49500036 0.48400003 0.71500015 1.177 0.71500015 1.848 c 0 1.1439998 -0.62699986 2.475 -2.31 2.475 c -0.7260001 0 -1.32 -0.29699993 -1.727 -0.77 c -0.39600003 -0.47300005 -0.605 -1.1110001 -0.605 -1.8040001 Z m 2.167 2.189 c 0.94599986 0 1.5289998 -0.8579998 1.5289998 -2.4419997 c 0 -1.3860002 -0.7149999 -1.7270001 -1.2319999 -1.7270001 c -1.1439999 0 -1.518 1.386 -1.518 2.2329998 c 0 0.957 0.23100007 1.9359999 1.2210001 1.9359999 Z "/>
        </symbol>
        <symbol id="g4C5202E6A6301AA1444482543B889DED" overflow="visible">
            <path d="M 0 0m 1.936 3.938 c -0.021999955 0.43999982 -0.032999992 0.7260001 -0.08799994 0.8360002 c -0.022000074 0.05499983 -0.04400003 0.08799982 -0.13200009 0.08799982 c -0.30799997 -0.12099981 -0.594 -0.21999979 -1.3529999 -0.31900024 c -0.022000015 -0.065999985 0 -0.24199963 0.021999985 -0.3079996 c 0.594 -0.055000305 0.71500003 -0.11000013 0.71500003 -0.74800014 v -2.145 c 0 -0.913 -0.13200003 -0.957 -0.814 -1.001 c -0.066000015 -0.065999985 -0.066000015 -0.297 0 -0.36299998 c 0.385 0.011 0.814 0.022 1.254 0.022 c 0.44000006 0 0.9460001 -0.011 1.3310001 -0.022 c 0.065999985 0.066 0.065999985 0.297 0 0.36299998 c -0.77 0.055000007 -0.90200007 0.088 -0.90200007 1.001 v 1.529 c 0 0.286 0.13200009 0.53900003 0.26400006 0.737 c 0.12100005 0.17599988 0.37399983 0.5389998 0.50600004 0.5389998 c 0.09899998 0 0.19799995 -0.021999836 0.286 -0.14299965 c 0.0769999 -0.11000013 0.20899987 -0.25300026 0.3959999 -0.25300026 c 0.26399994 0 0.51699996 0.2750001 0.51699996 0.5500002 c 0 0.20899963 -0.19799995 0.5279999 -0.6600001 0.5279999 c -0.51699996 0 -0.96799994 -0.4840002 -1.221 -0.9130001 c -0.065999985 -0.12099981 -0.12099993 -0.032999992 -0.12099993 0.022000074 Z "/>
        </symbol>
        <symbol id="g55B943B54A7CA0091797820502823289" overflow="visible">
            <path d="M 0 0m 1.87 3.938 c -0.011000037 0.33000016 -0.032999992 0.7260001 -0.08800006 0.8360002 c -0.021999955 0.05499983 -0.04399991 0.08799982 -0.13199997 0.08799982 c -0.30799997 -0.12099981 -0.594 -0.21999979 -1.3529999 -0.31900024 c -0.021999985 -0.065999985 0 -0.24199963 0.022000015 -0.3079996 c 0.594 -0.055000305 0.71500003 -0.11000013 0.71500003 -0.74800014 v -2.145 c 0 -0.902 -0.14300007 -0.957 -0.748 -1.001 c -0.066000015 -0.065999985 -0.066000015 -0.297 0 -0.36299998 c 0.32999998 0.011 0.748 0.022 1.188 0.022 c 0.44000006 0 0.7809999 -0.011 1.1110001 -0.022 c 0.065999985 0.066 0.065999985 0.297 0 0.36299998 c -0.5610001 0.055000007 -0.68200004 0.09900001 -0.68200004 1.001 v 1.8039999 c 0 0.23100019 0.0990001 0.36300015 0.18699992 0.46200013 c 0.44000006 0.42900014 0.8470001 0.6489999 1.188 0.6489999 c 0.41800022 0 0.7260003 -0.26399994 0.7260003 -1.0009999 v -1.914 c 0 -0.902 -0.0880003 -0.957 -0.68200016 -1.001 c -0.055000067 -0.065999985 -0.055000067 -0.297 0 -0.36299998 c 0.27499986 0.011 0.68200016 0.022 1.1219997 0.022 c 0.44000006 0 0.803 -0.011 1.0780001 -0.022 c 0.055000305 0.066 0.055000305 0.297 0 0.36299998 c -0.5499997 0.044 -0.6489997 0.09900001 -0.6489997 1.001 v 1.7490001 c 0 0.1539998 0 0.30799985 -0.011000156 0.43999982 c 0.5279999 0.58299994 1.0229998 0.7260001 1.4520001 0.7260001 c 0.41799974 0 0.65999985 -0.2420001 0.65999985 -0.9790001 v -1.9359999 c 0 -0.902 -0.11000013 -0.957 -0.68200016 -1.001 c -0.05499983 -0.065999985 -0.05499983 -0.297 0 -0.36299998 c 0.2750001 0.011 0.68200016 0.022 1.1220002 0.022 c 0.44000006 0 0.8250003 -0.011 1.1329999 -0.022 c 0.055000305 0.066 0.055000305 0.297 0 0.36299998 c -0.605 0.044 -0.704 0.09900001 -0.704 1.001 v 1.7379999 c 0 0.9790001 -0.16499996 1.7490001 -1.1329999 1.7490001 c -0.5609999 0 -1.243 -0.20900011 -1.815 -0.8140001 c -0.032999992 -0.032999992 -0.09899998 -0.08799982 -0.12099981 0.011000156 c -0.09899998 0.45099974 -0.52800035 0.803 -1.1000001 0.803 c -0.638 0 -1.21 -0.37400007 -1.6719999 -0.89100003 c -0.055000067 -0.055000067 -0.12100005 -0.13199997 -0.13200009 0 Z "/>
        </symbol>
        <symbol id="g99A255A263467FD58D3ACC5CB3315FBE" overflow="visible">
            <path d="M 0 0m 4.246 1.023 c -0.40699983 -0.41799998 -0.72599983 -0.594 -1.3639998 -0.594 c -0.3959999 0 -0.85800004 0.23099998 -1.199 0.79199994 c -0.22000003 0.36300004 -0.352 0.86899996 -0.352 1.507 l 2.926 -0.021999836 c 0.13199997 0 0.20900011 0.065999985 0.20900011 0.1869998 c 0 0.924 -0.32999992 1.9140003 -1.8590002 1.9140003 c -0.9569999 0 -2.1999998 -0.9130001 -2.1999998 -2.5850003 c 0 -0.61599994 0.15399998 -1.2099999 0.517 -1.6279999 c 0.37399995 -0.44 0.8909999 -0.704 1.6829998 -0.704 c 0.8360002 0 1.4300003 0.385 1.8699999 0.957 c -0.032999992 0.110000014 -0.09899998 0.16499996 -0.23099995 0.176 Z m -2.882 2.079 c 0.20899999 1.2429998 0.979 1.3419998 1.2429999 1.3419998 c 0.41800022 0 0.9130001 -0.23099995 0.9130001 -1.1549997 c 0 -0.09899998 -0.04399991 -0.15400004 -0.16499996 -0.15400004 Z "/>
        </symbol>
    </defs>
</svg>
